<?xml version="1.0" encoding="UTF-8" standalone="no"?>
<!-- Created with Inkscape (http://www.inkscape.org/) -->

<svg
   xmlns:dc="http://purl.org/dc/elements/1.1/"
   xmlns:cc="http://creativecommons.org/ns#"
   xmlns:rdf="http://www.w3.org/1999/02/22-rdf-syntax-ns#"
   xmlns:svg="http://www.w3.org/2000/svg"
   xmlns="http://www.w3.org/2000/svg"
   xmlns:xlink="http://www.w3.org/1999/xlink"
   xmlns:sodipodi="http://sodipodi.sourceforge.net/DTD/sodipodi-0.dtd"
   xmlns:inkscape="http://www.inkscape.org/namespaces/inkscape"
   width="210mm"
   height="297mm"
   id="svg2"
   version="1.1"
   inkscape:version="0.47 r22583"
   sodipodi:docname="hexmaze.svg">
  <defs
     id="defs4">
    <linearGradient
       id="linearGradient3664">
      <stop
         style="stop-color:#ba0000;stop-opacity:1;"
         offset="0"
         id="stop3666" />
      <stop
         style="stop-color:#770b0b;stop-opacity:1;"
         offset="1"
         id="stop3668" />
    </linearGradient>
    <inkscape:perspective
       sodipodi:type="inkscape:persp3d"
       inkscape:vp_x="0 : 526.18109 : 1"
       inkscape:vp_y="0 : 1000 : 0"
       inkscape:vp_z="744.09448 : 526.18109 : 1"
       inkscape:persp3d-origin="372.04724 : 350.78739 : 1"
       id="perspective10" />
    <radialGradient
       inkscape:collect="always"
       xlink:href="#linearGradient3664"
       id="radialGradient3670"
       cx="345.7247"
       cy="324.29471"
       fx="345.7247"
       fy="324.29471"
       r="35.102802"
       gradientUnits="userSpaceOnUse" />
  </defs>
  <sodipodi:namedview
     id="base"
     pagecolor="#ffffff"
     bordercolor="#666666"
     borderopacity="1.0"
     inkscape:pageopacity="0.0"
     inkscape:pageshadow="2"
     inkscape:zoom="1.979899"
     inkscape:cx="307.35946"
     inkscape:cy="728.62"
     inkscape:document-units="px"
     inkscape:current-layer="layer1"
     showgrid="false"
     inkscape:window-width="1920"
     inkscape:window-height="998"
     inkscape:window-x="0"
     inkscape:window-y="25"
     inkscape:window-maximized="1" />
  <metadata
     id="metadata7">
    <rdf:RDF>
      <cc:Work
         rdf:about="">
        <dc:format>image/svg+xml</dc:format>
        <dc:type
           rdf:resource="http://purl.org/dc/dcmitype/StillImage" />
        <dc:title></dc:title>
      </cc:Work>
    </rdf:RDF>
  </metadata>
  <g
     inkscape:label="Capa 1"
     inkscape:groupmode="layer"
     id="layer1">
    <path
       style="fill:none;stroke:#000000;stroke-width:1px;stroke-linecap:butt;stroke-linejoin:miter;stroke-opacity:1"
       d="m 212.13203,313.94067 75.76145,72.73099 138.39089,-15.15229 19.1929,-83.84266 -92.93403,-53.53809 -109.09648,3.03046 -31.31473,76.77159 z"
       id="path2816" />
    <path
       style="fill:none;stroke:#000000;stroke-width:1px;stroke-linecap:butt;stroke-linejoin:miter;stroke-opacity:1"
       d="m 540.93669,264.94827 -80.30713,22.22336 -17.17259,86.87312 76.26651,44.44671"
       id="path2818" />
    <path
       style="fill:none;stroke:#000000;stroke-width:1px;stroke-linecap:butt;stroke-linejoin:miter;stroke-opacity:1"
       d="m 495.47982,422.53207 -61.6193,-38.3858 -138.89598,17.1726 -8.58629,19.69797"
       id="path2820" />
    <path
       style="fill:none;stroke:#000000;stroke-width:1px;stroke-linecap:butt;stroke-linejoin:miter;stroke-opacity:1"
       d="m 268.1955,416.97623 12.12183,-21.71828 -75.76144,-72.22591 -57.57869,3.53554"
       id="path2822" />
    <path
       style="fill:none;stroke:#000000;stroke-width:1px;stroke-linecap:butt;stroke-linejoin:miter;stroke-opacity:1"
       d="m 204.55589,308.88991 -58.08377,1.01015 52.52793,-1.01015 30.80965,-75.25637 -80.30713,-51.51778"
       id="path2824"
       sodipodi:nodetypes="ccccc" />
    <path
       style="fill:none;stroke:#000000;stroke-width:1px;stroke-linecap:butt;stroke-linejoin:miter;stroke-opacity:1"
       d="m 168.69548,179.59038 72.73098,47.98225 104.55079,-5.05076 12.12183,-45.45687"
       id="path2826" />
    <path
       style="fill:none;stroke:#000000;stroke-width:1px;stroke-linecap:butt;stroke-linejoin:miter;stroke-opacity:1"
       d="m 536.89608,250.30106 -82.32743,24.74874 -91.92389,-51.01271 12.12183,-42.93148"
       id="path2828" />
    <path
       style="fill:none;stroke:#000000;stroke-width:1px;stroke-linecap:butt;stroke-linejoin:miter;stroke-opacity:1"
       d="m 353.55339,234.13862 -18.18274,85.86297 71.72083,53.53809"
       id="path2830"
       sodipodi:nodetypes="ccc" />
    <path
       style="fill:none;stroke:#000000;stroke-width:1px;stroke-linecap:butt;stroke-linejoin:miter;stroke-opacity:1"
       d="M 335.37065,320.00159 223.24371,326.0625"
       id="path2832"
       sodipodi:nodetypes="cc" />
    <path
       style="fill:none;stroke:#000000;stroke-width:1px;stroke-linecap:butt;stroke-linejoin:miter;stroke-opacity:1"
       d="m 203.54574,322.02189 -17.1726,77.27667 14.64722,12.62691"
       id="path2834" />
    <path
       style="fill:none;stroke:#000000;stroke-width:1px;stroke-linecap:butt;stroke-linejoin:miter;stroke-opacity:1"
       d="m 186.37314,398.28841 -36.36549,7.57614"
       id="path2836" />
    <path
       style="fill:none;stroke:#000000;stroke-width:1px;stroke-linecap:butt;stroke-linejoin:miter;stroke-opacity:1"
       d="m 460.62956,286.66655 -10.10152,89.3985"
       id="path2838" />
    <path
       style="fill:none;stroke:#000000;stroke-width:1px;stroke-linecap:butt;stroke-linejoin:miter;stroke-opacity:1"
       d="m 433.35544,384.65135 -4.54568,37.88072"
       id="path2840" />
    <path
       style="fill:none;stroke:#000000;stroke-width:1px;stroke-linecap:butt;stroke-linejoin:miter;stroke-opacity:1"
       d="m 377.79705,232.11832 95.96449,-9.09138 8.5863,-44.95179"
       id="path2842"
       sodipodi:nodetypes="ccc" />
    <path
       style="fill:#1a1a1a;stroke:#000000;stroke-width:1px;stroke-linecap:butt;stroke-linejoin:miter;stroke-opacity:1"
       d="m 474.26662,222.52187 60.60915,26.26396"
       id="path2844" />
    <rect
       style="color:#000000;fill:none;stroke:#000000;stroke-width:0.95535189;stroke-linecap:butt;stroke-linejoin:round;stroke-miterlimit:4;stroke-opacity:1;stroke-dasharray:none;stroke-dashoffset:0;marker:none;visibility:visible;display:inline;overflow:visible;enable-background:accumulate"
       id="rect2846"
       width="376.32648"
       height="227.83405"
       x="156.04623"
       y="182.09344"
       inkscape:export-filename="/home/alberto/src/proyecto_moneda/images/level_desc/hexmaze.png"
       inkscape:export-xdpi="72.041634"
       inkscape:export-ydpi="72.041634" />
    <path
       style="color:#000000;fill:#666666;fill-opacity:1;fill-rule:nonzero;stroke:none;stroke-width:0.50507628999999998;stroke-linecap:butt;stroke-linejoin:round;stroke-miterlimit:4;stroke-opacity:1;stroke-dasharray:none;stroke-dashoffset:0;marker:none;visibility:visible;display:inline;overflow:visible;enable-background:accumulate"
       d="m 273.72138,408.90537 c 0,-0.10708 1.44212,-2.77767 3.20471,-5.93464 1.76259,-3.15698 3.46339,-6.22924 3.77956,-6.82726 0.53359,-1.00926 -2.03565,-3.57687 -35.79174,-35.76905 -20.00162,-19.07497 -37.41409,-35.58835 -38.69436,-36.69642 -1.56169,-1.35163 -2.59742,-1.90175 -3.14711,-1.67158 -0.45064,0.1887 -9.22887,0.86811 -19.50717,1.5098 -10.2783,0.6417 -20.56292,1.30783 -22.8547,1.4803 l -4.16688,0.31358 0,-7.2732 0,-7.2732 5.38187,-0.32929 c 2.96003,-0.18111 9.6081,-0.32993 14.77348,-0.33072 16.39294,-0.002 28.33197,-0.56763 28.33197,-1.34112 0,-0.46655 -0.70828,-0.67776 -2.27284,-0.67776 -1.25007,0 -2.27285,-0.17185 -2.27285,-0.3819 0,-0.21005 6.79626,-16.97227 15.10279,-37.24938 8.30653,-20.2771 15.01965,-37.00292 14.91803,-37.16847 -0.10162,-0.16555 -16.78474,-10.94535 -37.07361,-23.95511 -34.5422,-22.14938 -36.88884,-23.74477 -36.88884,-25.07908 l 0,-1.42497 7.79691,0 7.7969,0 34.44792,22.72843 c 18.94635,12.50064 34.81373,22.72778 35.26084,22.72698 5.52256,-0.01 104.36554,-5.12152 104.62849,-5.41083 0.198,-0.21785 2.71728,-9.31515 5.59838,-20.21621 l 5.23838,-19.82013 7.99508,-0.004 7.99508,-0.004 -0.31896,1.45223 c -0.17543,0.79873 -2.78867,10.17387 -5.80719,20.83364 -3.01851,10.65977 -5.44999,19.40212 -5.40327,19.42745 0.0467,0.0253 20.75552,11.50354 46.01955,25.50712 25.26404,14.00358 46.28784,25.51006 46.71956,25.56996 0.43172,0.0599 17.94491,-5.06947 38.9182,-11.39859 l 38.13326,-11.50749 0.14098,6.7961 c 0.0775,3.73786 0.0357,6.90139 -0.093,7.03007 -0.12868,0.12868 -16.19921,4.65464 -35.7123,10.0577 -19.5131,5.40305 -35.66526,9.93925 -35.89371,10.08044 -0.22844,0.14118 -0.41535,0.61355 -0.41535,1.0497 0,0.43615 -3.75019,19.74337 -8.33376,42.90493 -4.58356,23.16155 -8.33376,42.54417 -8.33376,43.07248 0,0.73666 6.62225,4.81501 28.41055,17.49678 15.62579,9.09492 28.85886,16.84344 29.4068,17.21893 0.84872,0.58161 -0.94942,0.68272 -12.14156,0.68272 l -13.13782,0 -20.6884,-12.89399 c -18.94242,-11.8058 -20.83759,-12.87159 -22.45617,-12.62874 -0.97227,0.14588 -32.33751,4.03246 -69.70052,8.63683 -37.36302,4.60438 -68.06692,8.52587 -68.2309,8.71441 -0.16398,0.18855 -1.05737,2.10426 -1.98532,4.25715 l -1.68717,3.91434 -8.49502,0 c -4.67226,0 -8.49502,-0.0876 -8.49502,-0.1947 z m 83.64847,-29.08768 c 37.96586,-4.16026 69.16684,-7.69848 69.33551,-7.86272 0.16867,-0.16424 4.65434,-19.20472 9.96816,-42.31218 7.15347,-31.10729 9.5135,-42.15828 9.09137,-42.57106 -0.40052,-0.39165 -89.59353,-51.85675 -92.79823,-53.54534 -0.31446,-0.16569 -106.86129,2.72871 -108.96431,2.96007 -1.0674,0.11743 -2.71822,3.88267 -16.99747,38.7684 l -15.81525,38.63833 6.01206,5.94918 c 3.30664,3.27204 6.01207,6.15326 6.01207,6.40268 0,0.24944 0.31425,0.52701 0.69834,0.61682 0.38409,0.0898 14.84049,13.74354 32.12535,30.34161 17.28485,16.59807 31.62422,30.17831 31.86527,30.17831 0.24106,0 31.50126,-3.40385 69.46713,-7.5641 l 0,0 z"
       id="path3626" />
    <path
       style="color:#000000;fill:#ececec;fill-opacity:1;fill-rule:nonzero;stroke:none;stroke-width:1;marker:none;visibility:visible;display:inline;overflow:visible;enable-background:accumulate"
       d="m 219.01966,319.48869 -5.96186,-5.74725 15.39597,-37.72668 c 8.46778,-20.74968 15.47905,-37.80977 15.5806,-37.91132 0.23424,-0.23424 108.11638,-3.2805 108.33775,-3.05913 0.19642,0.19643 -17.46019,83.73915 -17.76189,84.04085 -0.11517,0.11517 -22.78319,1.422 -50.37337,2.90406 -27.59018,1.48206 -52.20952,2.81887 -54.70965,2.97069 l -4.54569,0.27604 -5.96186,-5.74726 0,0 z"
       id="path3630" />
    <path
       style="color:#000000;fill:#ececec;fill-opacity:1;fill-rule:nonzero;stroke:none;stroke-width:1;marker:none;visibility:visible;display:inline;overflow:visible;enable-background:accumulate"
       d="m 370.44349,227.48853 c -5.42844,-3.08211 -6.54385,-3.91236 -6.43816,-4.79227 0.20316,-1.69151 10.79157,-39.07122 11.18729,-39.4939 0.19626,-0.20964 23.99393,-0.32328 52.8837,-0.25254 l 52.52687,0.12862 -3.69245,19.40745 c -2.03084,10.6741 -3.79541,19.51042 -3.92126,19.63627 -0.2321,0.2321 -93.82881,9.21187 -95.22238,9.13574 -0.41669,-0.0228 -3.71231,-1.71898 -7.32361,-3.76937 z"
       id="path3632" />
    <path
       style="color:#000000;fill:#ececec;fill-opacity:1;fill-rule:nonzero;stroke:none;stroke-width:1;marker:none;visibility:visible;display:inline;overflow:visible;enable-background:accumulate"
       d="m 156.54369,365.15843 c 0,-30.35645 0.13206,-38.39186 0.63134,-38.4148 0.34724,-0.0159 10.63186,-0.6604 22.8547,-1.4321 12.22285,-0.7717 22.24849,-1.38368 22.27921,-1.35995 0.17859,0.13797 -16.03364,72.39808 -16.37745,72.99649 -0.27274,0.47472 -5.23076,1.73954 -14.27153,3.64075 -7.61947,1.60232 -14.13769,2.92278 -14.48493,2.93436 -0.49972,0.0167 -0.63134,-7.9816 -0.63134,-38.36475 z"
       id="path3634" />
    <path
       style="fill:none;stroke:#000000;stroke-width:1px;stroke-linecap:butt;stroke-linejoin:miter;stroke-opacity:1"
       d="m 201.52543,299.79854 -57.07362,-38.3858"
       id="path3636" />
    <path
       style="fill:none;stroke:#000000;stroke-width:1px;stroke-linecap:butt;stroke-linejoin:miter;stroke-opacity:1"
       d="M 326.78435,222.01679 267.69042,174.53962"
       id="path3638" />
    <path
       style="fill:none;stroke:#000000;stroke-width:1px;stroke-linecap:butt;stroke-linejoin:miter;stroke-opacity:1"
       d="M 186.87822,190.70206 242.94169,175.0447"
       id="path3640" />
    <path
       style="fill:none;stroke:#000000;stroke-width:1px;stroke-linecap:butt;stroke-linejoin:miter;stroke-opacity:1"
       d="m 450.02296,377.07521 87.37819,-18.18275"
       id="path3644" />
    <path
       style="color:#000000;fill:#ececec;fill-opacity:1;fill-rule:nonzero;stroke:none;stroke-width:1;marker:none;visibility:visible;display:inline;overflow:visible;enable-background:accumulate"
       d="m 451.50823,374.88872 c 0,-1.53152 9.70028,-86.74536 9.8989,-86.95864 0.1046,-0.11233 15.93242,-4.56315 35.17294,-9.89071 l 34.98275,-9.68648 0.12899,45.21807 c 0.0709,24.86994 -0.0427,45.37232 -0.25254,45.56085 -0.33511,0.30106 -78.58069,16.67171 -79.55223,16.64402 -0.20835,-0.006 -0.37881,-0.40513 -0.37881,-0.88711 z"
       id="path3646" />
    <path
       style="color:#000000;fill:#cccccc;fill-opacity:1;fill-rule:nonzero;stroke:none;stroke-width:1;marker:none;visibility:visible;display:inline;overflow:visible;enable-background:accumulate"
       d="m 180.28227,186.33196 -5.3033,-3.48798 18.14066,-0.009 c 9.97736,-0.005 18.04595,0.0794 17.93021,0.18737 -0.33968,0.31702 -24.20389,6.87842 -24.86345,6.83614 -0.33045,-0.0212 -2.9873,-1.60811 -5.90412,-3.52649 z"
       id="path3648" />
    <path
       style="color:#000000;fill:#cccccc;fill-opacity:1;fill-rule:nonzero;stroke:none;stroke-width:1;marker:none;visibility:visible;display:inline;overflow:visible;enable-background:accumulate"
       d="m 372.47168,346.70424 c -19.16331,-14.30705 -35.14417,-26.31462 -35.51302,-26.68347 -0.55749,-0.55748 0.78595,-7.56581 7.96142,-41.53237 4.74763,-22.47395 8.79607,-41.22432 8.99652,-41.6675 0.29668,-0.65595 8.72136,4.01171 45.30795,25.10269 24.71893,14.24966 45.00769,26.10102 45.08614,26.33636 0.15997,0.4799 -18.44128,81.99754 -18.79043,82.34669 -0.21471,0.21471 -15.90388,2.11314 -17.44859,2.11132 -0.41669,-4.9e-4 -16.43668,-11.70667 -35.59999,-26.01372 l 0,0 z"
       id="path3650" />
    <path
       style="color:#000000;fill:#cccccc;fill-opacity:1;fill-rule:nonzero;stroke:none;stroke-width:1;marker:none;visibility:visible;display:inline;overflow:visible;enable-background:accumulate"
       d="m 503.02601,234.20716 c -15.41745,-6.69402 -28.08591,-12.20229 -28.15212,-12.2406 -0.11511,-0.0666 6.6136,-35.64882 7.18672,-38.00424 l 0.27652,-1.13642 24.73911,0 24.73912,0 0,31.8198 c 0,17.5009 -0.17046,31.80014 -0.37881,31.77611 -0.20834,-0.024 -12.99309,-5.52063 -28.41054,-12.21465 l 0,0 z"
       id="path3652" />
    <path
       style="color:#000000;fill:#cccccc;fill-opacity:1;fill-rule:nonzero;stroke:none;stroke-width:1;marker:none;visibility:visible;display:inline;overflow:visible;enable-background:accumulate"
       d="m 327.03507,222.07811 c 0.17948,-0.46772 -7.69677,-7.09952 -23.57604,-19.85102 l -23.84555,-19.14865 37.79353,-0.12951 c 20.78645,-0.0712 37.88961,-0.0334 38.00702,0.084 0.15794,0.15794 -7.96366,31.5501 -9.76877,37.75885 -0.26278,0.90388 -1.77577,1.09789 -13.20318,1.69307 -4.72477,0.24608 -5.63135,0.17789 -5.40701,-0.40672 l 0,0 z"
       id="path3654" />
    <path
       style="color:#000000;fill:#cccccc;fill-opacity:1;fill-rule:nonzero;stroke:none;stroke-width:1;marker:none;visibility:visible;display:inline;overflow:visible;enable-background:accumulate"
       d="m 194.9164,405.66422 c -2.09064,-1.86047 -4.66937,-4.13354 -5.73051,-5.05125 l -1.92935,-1.66856 8.19569,-36.96977 c 4.50764,-20.33337 8.33643,-37.22537 8.50843,-37.53777 0.18042,-0.32769 14.30995,12.78382 33.39523,30.98911 18.19537,17.35642 35.07538,33.45791 37.51112,35.7811 l 4.42862,4.22396 -3.75563,6.70825 -3.75563,6.70824 -36.53341,0.0997 -36.5334,0.0997 -3.80116,-3.38269 z"
       id="path3656" />
    <path
       style="color:#000000;fill:#f2f2f2;fill-opacity:1;fill-rule:nonzero;stroke:none;stroke-width:1;marker:none;visibility:visible;display:inline;overflow:visible;enable-background:accumulate"
       d="m 431.29601,408.72126 c -0.0178,-0.73694 2.66609,-23.10946 2.78988,-23.25565 0.0691,-0.0816 8.279,4.93248 18.24419,11.14246 9.96518,6.20997 18.57308,11.55421 19.12866,11.87607 0.77795,0.45069 -3.721,0.58874 -19.5717,0.60057 -11.32002,0.008 -20.58599,-0.1551 -20.59103,-0.36345 z"
       id="path3658" />
    <path
       style="color:#000000;fill:#f2f2f2;fill-opacity:1;fill-rule:nonzero;stroke:none;stroke-width:1;marker:none;visibility:visible;display:inline;overflow:visible;enable-background:accumulate"
       d="m 293.72482,406.19588 c 0.71658,-1.5973 1.41009,-3.16279 1.54114,-3.47886 0.13106,-0.31606 0.84878,-0.68872 1.59495,-0.82812 4.52697,-0.84574 134.99182,-16.6533 135.25693,-16.38819 0.17871,0.17871 -0.27608,5.39121 -1.01065,11.58334 -0.73457,6.19212 -1.33146,11.42887 -1.32641,11.63721 0.005,0.20835 -30.89863,0.37881 -68.67483,0.37881 l -68.68401,0 1.30288,-2.90419 z"
       id="path3660" />
    <path
       sodipodi:type="arc"
       style="color:#000000;fill:url(#radialGradient3670);fill-opacity:1;fill-rule:nonzero;stroke:#000000;stroke-width:1;marker:none;visibility:visible;display:inline;overflow:visible;enable-background:accumulate;stroke-opacity:1"
       id="path3662"
       sodipodi:cx="333.09781"
       sodipodi:cy="344.49777"
       sodipodi:rx="35.102802"
       sodipodi:ry="35.102802"
       d="m 368.20061,344.49777 a 35.102802,35.102802 0 1 1 -70.2056,0 35.102802,35.102802 0 1 1 70.2056,0 z" />
    <g
       style="font-size:40px;font-style:normal;font-weight:normal;fill:#e6e538;fill-opacity:1;stroke:#000000;stroke-opacity:1;font-family:Bitstream Vera Sans"
       id="flowRoot3672"
       transform="matrix(2.9710134,1.2084304,-1.305592,3.2098924,734.03772,-775.59724)">
      <path
         d="m 41.065,302.49508 c -2.8e-5,2.26668 -0.626694,4.04001 -1.88,5.32 -1.253359,1.25334 -3.02669,1.88001 -5.32,1.88 l -7.92,0 0,3.6 -11.88,0 c -10e-7,-2.26666 0.626665,-4.02666 1.88,-5.28 1.253329,-1.27999 3.02666,-1.91999 5.32,-1.92 l 8.28,0 0,-7.2 -3.6,0 0,3.96 -11.88,0 0,-0.36 c -10e-7,-2.18665 0.653331,-3.93331 1.96,-5.24 1.306662,-1.30664 3.053327,-1.95998 5.24,-1.96 l 12.6,0 c 2.186643,2e-5 3.933308,0.65336 5.24,1.96 1.306639,1.30669 1.959972,3.05335 1.96,5.24 m -15.84,18 -10.8,0 0,-3.6 10.8,0 0,3.6"
         style="font-variant:normal;font-stretch:normal;fill:#e6e538;fill-opacity:1;stroke:#000000;stroke-opacity:1;font-family:Contour Generator;-inkscape-font-specification:Contour Generator"
         id="path3681" />
    </g>
  </g>
</svg>
