<?xml version="1.0" encoding="UTF-8" standalone="no"?>
<!-- Created with Inkscape (http://www.inkscape.org/) -->

<svg
   xmlns:dc="http://purl.org/dc/elements/1.1/"
   xmlns:cc="http://creativecommons.org/ns#"
   xmlns:rdf="http://www.w3.org/1999/02/22-rdf-syntax-ns#"
   xmlns:svg="http://www.w3.org/2000/svg"
   xmlns="http://www.w3.org/2000/svg"
   xmlns:xlink="http://www.w3.org/1999/xlink"
   xmlns:sodipodi="http://sodipodi.sourceforge.net/DTD/sodipodi-0.dtd"
   xmlns:inkscape="http://www.inkscape.org/namespaces/inkscape"
   width="210mm"
   height="297mm"
   id="svg2"
   version="1.1"
   inkscape:version="0.47 r22583"
   sodipodi:docname="Piggybank_logo.svg">
  <defs
     id="defs4">
    <linearGradient
       id="linearGradient5426">
      <stop
         style="stop-color:#fac2b8;stop-opacity:1;"
         offset="0"
         id="stop5428" />
      <stop
         style="stop-color:#ee836f;stop-opacity:1;"
         offset="1"
         id="stop5430" />
    </linearGradient>
    <linearGradient
       id="linearGradient5416">
      <stop
         style="stop-color:#298912;stop-opacity:1;"
         offset="0"
         id="stop5418" />
      <stop
         id="stop5424"
         offset="0.19652174"
         style="stop-color:#391911;stop-opacity:1;" />
      <stop
         style="stop-color:#63d5f0;stop-opacity:1;"
         offset="1"
         id="stop5420" />
    </linearGradient>
    <inkscape:perspective
       sodipodi:type="inkscape:persp3d"
       inkscape:vp_x="0 : 526.18109 : 1"
       inkscape:vp_y="0 : 1000 : 0"
       inkscape:vp_z="744.09448 : 526.18109 : 1"
       inkscape:persp3d-origin="372.04724 : 350.78739 : 1"
       id="perspective10" />
    <inkscape:perspective
       id="perspective3813"
       inkscape:persp3d-origin="0.5 : 0.33333333 : 1"
       inkscape:vp_z="1 : 0.5 : 1"
       inkscape:vp_y="0 : 1000 : 0"
       inkscape:vp_x="0 : 0.5 : 1"
       sodipodi:type="inkscape:persp3d" />
    <inkscape:perspective
       id="perspective3839"
       inkscape:persp3d-origin="0.5 : 0.33333333 : 1"
       inkscape:vp_z="1 : 0.5 : 1"
       inkscape:vp_y="0 : 1000 : 0"
       inkscape:vp_x="0 : 0.5 : 1"
       sodipodi:type="inkscape:persp3d" />
    <inkscape:perspective
       id="perspective3863"
       inkscape:persp3d-origin="0.5 : 0.33333333 : 1"
       inkscape:vp_z="1 : 0.5 : 1"
       inkscape:vp_y="0 : 1000 : 0"
       inkscape:vp_x="0 : 0.5 : 1"
       sodipodi:type="inkscape:persp3d" />
    <inkscape:perspective
       id="perspective3885"
       inkscape:persp3d-origin="0.5 : 0.33333333 : 1"
       inkscape:vp_z="1 : 0.5 : 1"
       inkscape:vp_y="0 : 1000 : 0"
       inkscape:vp_x="0 : 0.5 : 1"
       sodipodi:type="inkscape:persp3d" />
    <inkscape:perspective
       id="perspective3907"
       inkscape:persp3d-origin="0.5 : 0.33333333 : 1"
       inkscape:vp_z="1 : 0.5 : 1"
       inkscape:vp_y="0 : 1000 : 0"
       inkscape:vp_x="0 : 0.5 : 1"
       sodipodi:type="inkscape:persp3d" />
    <linearGradient
       inkscape:collect="always"
       xlink:href="#linearGradient5416"
       id="linearGradient5422"
       x1="609.5"
       y1="1057.1479"
       x2="591.92871"
       y2="250.43361"
       gradientUnits="userSpaceOnUse" />
    <radialGradient
       inkscape:collect="always"
       xlink:href="#linearGradient5426"
       id="radialGradient5432"
       cx="397.49503"
       cy="718.00171"
       fx="397.49503"
       fy="718.00171"
       r="333.34528"
       gradientTransform="matrix(1,0,0,0.75302653,0,177.32737)"
       gradientUnits="userSpaceOnUse" />
    <linearGradient
       inkscape:collect="always"
       xlink:href="#linearGradient5426"
       id="linearGradient5440"
       x1="142.92191"
       y1="946.61737"
       x2="219.07143"
       y2="946.61737"
       gradientUnits="userSpaceOnUse" />
    <linearGradient
       inkscape:collect="always"
       xlink:href="#linearGradient5426"
       id="linearGradient5448"
       x1="268.71094"
       y1="946.29077"
       x2="344.86047"
       y2="946.29077"
       gradientUnits="userSpaceOnUse" />
    <linearGradient
       inkscape:collect="always"
       xlink:href="#linearGradient5426"
       id="linearGradient5456"
       x1="453.35382"
       y1="935.21936"
       x2="529.50336"
       y2="935.21936"
       gradientUnits="userSpaceOnUse" />
    <linearGradient
       inkscape:collect="always"
       xlink:href="#linearGradient5426"
       id="linearGradient5464"
       x1="542.63953"
       y1="936.64789"
       x2="618.78906"
       y2="936.64789"
       gradientUnits="userSpaceOnUse" />
  </defs>
  <sodipodi:namedview
     id="base"
     pagecolor="#ffffff"
     bordercolor="#666666"
     borderopacity="1.0"
     inkscape:pageopacity="0.0"
     inkscape:pageshadow="2"
     inkscape:zoom="0.7"
     inkscape:cx="300.17169"
     inkscape:cy="343.94916"
     inkscape:document-units="px"
     inkscape:current-layer="layer1"
     showgrid="false"
     inkscape:window-width="1920"
     inkscape:window-height="1001"
     inkscape:window-x="0"
     inkscape:window-y="25"
     inkscape:window-maximized="1" />
  <metadata
     id="metadata7">
    <rdf:RDF>
      <cc:Work
         rdf:about="">
        <dc:format>image/svg+xml</dc:format>
        <dc:type
           rdf:resource="http://purl.org/dc/dcmitype/StillImage" />
        <dc:title></dc:title>
      </cc:Work>
    </rdf:RDF>
  </metadata>
  <g
     inkscape:label="Capa 1"
     inkscape:groupmode="layer"
     id="layer1">
    <rect
       style="color:#000000;fill:url(#linearGradient5422);fill-opacity:1;fill-rule:nonzero;stroke:#000000;stroke-width:0.90860366999999997;stroke-linecap:butt;stroke-linejoin:round;stroke-miterlimit:4;stroke-opacity:1;stroke-dasharray:none;stroke-dashoffset:0;marker:none;visibility:visible;display:inline;overflow:visible;enable-background:accumulate"
       id="rect3964"
       width="745.80579"
       height="805.80573"
       x="-0.045694835"
       y="250.88791"
       ry="0"
       inkscape:export-filename="/home/alberto/src/proyecto_moneda/images/level_desc/Piggybank.png"
       inkscape:export-xdpi="36.158401"
       inkscape:export-ydpi="36.158401" />
    <path
       style="fill:url(#linearGradient5456);fill-opacity:1.0;stroke:#000000;stroke-width:1px;stroke-linecap:butt;stroke-linejoin:miter;stroke-opacity:1"
       d="m 453.87357,869.23823 19.1929,128.28935 c 0,0 -3.34885,2.008 11.29401,3.43662 14.64286,1.4286 21.42857,-3.57142 21.42857,-3.57142 l 23.21429,-125.71433 c 0,0 -18.92857,5.35714 -24.28572,5.35714 -5.35714,0 -18.21428,2.14286 -28.57142,0 -10.35715,-2.14286 -22.85715,-8.21428 -22.27263,-7.79736 z"
       id="path3853-8-2-4" />
    <path
       sodipodi:type="arc"
       style="color:#000000;fill:url(#radialGradient5432);fill-opacity:1;fill-rule:nonzero;stroke:#000000;stroke-width:1;marker:none;visibility:visible;display:inline;overflow:visible;enable-background:accumulate;stroke-opacity:1"
       id="path3029"
       sodipodi:cx="397.49503"
       sodipodi:cy="718.00171"
       sodipodi:rx="332.84528"
       sodipodi:ry="250.51784"
       d="m 730.3403,718.00171 a 332.84528,250.51784 0 1 1 -665.69055,0 332.84528,250.51784 0 1 1 665.69055,0 z" />
    <path
       sodipodi:type="arc"
       style="color:#000000;fill:#fb9474;fill-opacity:1;fill-rule:nonzero;stroke:#000000;stroke-width:1;stroke-opacity:1;marker:none;visibility:visible;display:inline;overflow:visible;enable-background:accumulate"
       id="path3027"
       sodipodi:cx="152.53304"
       sodipodi:cy="689.21234"
       sodipodi:rx="90.913727"
       sodipodi:ry="60.104076"
       d="m 243.44676,689.21234 a 90.913727,60.104076 0 1 1 -181.827452,0 90.913727,60.104076 0 1 1 181.827452,0 z"
       transform="matrix(0.86640076,0,0,1.2685054,45.112167,-127.58004)" />
    <path
       sodipodi:type="arc"
       style="color:#000000;fill:#000000;fill-opacity:1;fill-rule:nonzero;stroke:#000000;stroke-width:1;stroke-linecap:butt;stroke-linejoin:round;stroke-miterlimit:4;stroke-opacity:1;stroke-dasharray:none;stroke-dashoffset:0;marker:none;visibility:visible;display:inline;overflow:visible;enable-background:accumulate"
       id="path3803"
       sodipodi:cx="126.26907"
       sodipodi:cy="726.58801"
       sodipodi:rx="9.0913725"
       sodipodi:ry="26.769043"
       d="m 135.36045,726.58801 a 9.0913725,26.769043 0 1 1 -18.18275,0 9.0913725,26.769043 0 1 1 18.18275,0 z"
       transform="translate(8.5714283,18.08122)" />
    <path
       sodipodi:type="arc"
       style="color:#000000;fill:#000000;fill-opacity:1;fill-rule:nonzero;stroke:#000000;stroke-width:1;stroke-linecap:butt;stroke-linejoin:round;stroke-miterlimit:4;stroke-opacity:1;stroke-dasharray:none;stroke-dashoffset:0;marker:none;visibility:visible;display:inline;overflow:visible;enable-background:accumulate"
       id="path3803-9"
       sodipodi:cx="126.26907"
       sodipodi:cy="726.58801"
       sodipodi:rx="9.0913725"
       sodipodi:ry="26.769043"
       d="m 135.36045,726.58801 a 9.0913725,26.769043 0 1 1 -18.18275,0 9.0913725,26.769043 0 1 1 18.18275,0 z"
       transform="translate(71.200882,18.586271)" />
    <path
       sodipodi:type="arc"
       style="color:#000000;fill:#000000;fill-opacity:1;fill-rule:nonzero;stroke:#000000;stroke-width:1;stroke-linecap:butt;stroke-linejoin:round;stroke-miterlimit:4;stroke-opacity:1;stroke-dasharray:none;stroke-dashoffset:0;marker:none;visibility:visible;display:inline;overflow:visible;enable-background:accumulate"
       id="path3827"
       sodipodi:cx="303.55084"
       sodipodi:cy="615.47119"
       sodipodi:rx="22.728432"
       sodipodi:ry="24.748737"
       d="m 326.27927,615.47119 a 22.728432,24.748737 0 1 1 -45.45686,0 22.728432,24.748737 0 1 1 45.45686,0 z"
       transform="translate(-35.714285,27.142857)" />
    <path
       transform="translate(-187.3833,27.597187)"
       sodipodi:type="arc"
       style="color:#000000;fill:#000000;fill-opacity:1;fill-rule:nonzero;stroke:#000000;stroke-width:1;stroke-linecap:butt;stroke-linejoin:round;stroke-miterlimit:4;stroke-opacity:1;stroke-dasharray:none;stroke-dashoffset:0;marker:none;visibility:visible;display:inline;overflow:visible;enable-background:accumulate"
       id="path3827-3"
       sodipodi:cx="303.55084"
       sodipodi:cy="615.47119"
       sodipodi:rx="22.728432"
       sodipodi:ry="24.748737"
       d="m 326.27927,615.47119 a 22.728432,24.748737 0 1 1 -45.45686,0 22.728432,24.748737 0 1 1 45.45686,0 z" />
    <path
       style="fill:url(#linearGradient5440);stroke:#000000;stroke-width:1px;stroke-linecap:butt;stroke-linejoin:miter;stroke-opacity:1;fill-opacity:1.0"
       d="m 143.44166,880.63625 19.1929,128.28935 c 0,0 -3.34885,2.008 11.29401,3.4366 14.64286,1.4286 21.42857,-3.5714 21.42857,-3.5714 l 23.21429,-125.71433 c 0,0 -18.92857,5.35714 -24.28572,5.35714 -5.35714,0 -18.21428,2.14286 -28.57142,0 -10.35715,-2.14286 -22.85715,-8.21428 -22.27263,-7.79736 z"
       id="path3853" />
    <path
       style="fill:url(#linearGradient5448);fill-opacity:1.0;stroke:#000000;stroke-width:1px;stroke-linecap:butt;stroke-linejoin:miter;stroke-opacity:1"
       d="m 269.2307,880.30965 19.1929,128.28935 c 0,0 -3.34885,2.008 11.29401,3.4366 14.64286,1.4286 21.42857,-3.5714 21.42857,-3.5714 l 23.21429,-125.71433 c 0,0 -18.92857,5.35714 -24.28572,5.35714 -5.35714,0 -18.21428,2.14286 -28.57142,0 -10.35715,-2.14286 -22.85715,-8.21428 -22.27263,-7.79736 z"
       id="path3853-8" />
    <path
       style="fill:url(#linearGradient5464);fill-opacity:1.0;stroke:#000000;stroke-width:1px;stroke-linecap:butt;stroke-linejoin:miter;stroke-opacity:1"
       d="m 543.15927,870.6668 19.1929,128.28935 c 0,0 -3.34885,2.00795 11.29401,3.43655 14.64286,1.4286 21.42857,-3.57135 21.42857,-3.57135 l 23.21429,-125.71433 c 0,0 -18.92857,5.35714 -24.28572,5.35714 -5.35714,0 -18.21428,2.14286 -28.57142,0 -10.35715,-2.14286 -22.85715,-8.21428 -22.27263,-7.79736 z"
       id="path3853-8-2" />
    <path
       style="fill:#f28a7c;stroke:#000000;stroke-width:1px;stroke-linecap:butt;stroke-linejoin:miter;stroke-opacity:1;fill-opacity:1"
       d="m 681.42857,586.6479 c 12.74513,-6.16482 25.23381,-17.99371 24.99099,-33.14316 -0.45329,-10.59883 -7.61931,-22.84739 -19.39258,-22.79688 -8.89963,-0.68451 -17.93494,6.24053 -17.81458,15.55977 -1.69023,8.27888 3.74999,16.42888 11.6988,18.80866 5.95824,3.32396 18.34473,0.138 14.31204,-8.38206 -6.37172,3.46692 -16.87402,3.25984 -20.51387,-5.24662 -4.48525,-7.46005 1.34139,-18.13865 10.21467,-17.73893 10.13854,0.70548 15.57775,11.64111 16.76394,20.63256 1.09827,8.04802 -2.88274,17.20305 -11.17899,19.55167 -5.41574,1.33109 -16.23344,6.10623 -9.08042,12.75499 z"
       id="path3923" />
    <path
       style="fill:#74190d;stroke:#000000;stroke-width:1px;stroke-linecap:butt;stroke-linejoin:miter;stroke-opacity:1;fill-opacity:1"
       d="m 302.54069,518.24402 c 10.94332,0.16836 21.88664,0.33672 32.82996,0.50508 39.83593,-37.76991 98.35054,-44.47717 150.51748,-36.72021 38.23614,1.28401 -21.6081,-11.22064 -33.32958,-11.0267 -51.68044,-4.90911 -106.14761,9.6982 -146.21669,43.04835 l -3.80117,4.19348 0,0 z"
       id="path3943" />
    <path
       sodipodi:type="arc"
       style="color:#000000;fill:#fffc03;fill-opacity:1;fill-rule:nonzero;stroke:#000000;stroke-width:1;stroke-linecap:butt;stroke-linejoin:round;stroke-miterlimit:4;stroke-opacity:1;stroke-dasharray:none;stroke-dashoffset:0;marker:none;visibility:visible;display:inline;overflow:visible;enable-background:accumulate"
       id="path3955"
       sodipodi:cx="374.28571"
       sodipodi:cy="325.93362"
       sodipodi:rx="44.285713"
       sodipodi:ry="70.714287"
       d="m 418.57142,325.93362 a 44.285713,70.714287 0 1 1 -88.57143,0 44.285713,70.714287 0 1 1 88.57143,0 z"
       transform="translate(60.714286,62.857143)" />
    <path
       style="fill:#d2d04c;fill-opacity:1;stroke:#000000;stroke-width:1px;stroke-linecap:butt;stroke-linejoin:miter;stroke-opacity:1"
       d="m 433.21429,317.36218 c -8.69048,-0.11905 -17.38095,-0.23809 -26.07143,-0.35714 -15.3519,9.28499 -22.96243,26.84487 -26.85753,43.6524 -4.72915,18.61722 -2.97819,38.19543 0.34483,56.88855 1.77041,8.24635 3.39496,16.78946 7.30183,24.30892 4.61136,7.32378 10.34037,16.20973 19.89303,16.79516 8.11032,0.14787 16.21162,0.57849 24.31784,0.85497 -15.63222,-2.47863 -27.10073,-15.67006 -33.08752,-29.57015 -10.21522,-23.13225 -10.72183,-50.04958 -3.18203,-74.02543 4.9065,-13.72585 12.59465,-28.02764 26.31219,-34.59304 3.47882,-1.86162 7.34095,-2.65624 11.02879,-3.95424 z"
       id="path3957" />
  </g>
</svg>
